<svg width="19" height="19" viewBox="0 0 19 19" fill="none" xmlns="http://www.w3.org/2000/svg">
<path fill-rule="evenodd" clip-rule="evenodd" d="M9.50002 15.0417C8.63327 15.0417 8.19989 15.0417 8.05999 14.7718C8.03248 14.7187 8.01473 14.6612 8.00754 14.6018C7.97096 14.3 8.465 13.9629 9.45308 13.2887C10.9152 12.291 11.875 10.6115 11.875 8.70792C11.875 6.8042 10.9151 5.12469 9.45286 4.12701C9.3784 4.07621 9.40988 3.95834 9.50002 3.95834C12.5606 3.95834 15.0417 6.43943 15.0417 9.50001C15.0417 12.5606 12.5606 15.0417 9.50002 15.0417Z" fill="white" fill-opacity="0.25"/>
<path d="M9.45286 4.12701L9.1147 4.62264L9.45286 4.12701ZM9.45308 13.2887L9.79127 13.7843L9.45308 13.2887ZM8.00754 14.6018L8.60318 14.5296L8.00754 14.6018ZM8.05999 14.7718L7.5273 15.0479L8.05999 14.7718ZM9.11489 12.7931C10.4202 11.9024 11.275 10.4049 11.275 8.70792H12.475C12.475 10.8182 11.4102 12.6796 9.79127 13.7843L9.11489 12.7931ZM11.275 8.70792C11.275 7.01086 10.4201 5.51331 9.1147 4.62264L9.79103 3.63139C11.4101 4.73606 12.475 6.59754 12.475 8.70792H11.275ZM14.4417 9.50001C14.4417 6.7708 12.2292 4.55834 9.50002 4.55834V3.35834C12.892 3.35834 15.6417 6.10806 15.6417 9.50001H14.4417ZM9.50002 14.4417C12.2292 14.4417 14.4417 12.2292 14.4417 9.50001H15.6417C15.6417 12.892 12.892 15.6417 9.50002 15.6417V14.4417ZM9.1147 4.62264C8.8435 4.4376 8.76589 4.12067 8.83611 3.86483C8.90802 3.60279 9.15069 3.35834 9.50002 3.35834V4.55834C9.75921 4.55834 9.94106 4.37282 9.99332 4.18242C10.0439 3.99822 9.98776 3.76562 9.79103 3.63139L9.1147 4.62264ZM9.79127 13.7843C9.28457 14.13 8.94694 14.3615 8.73488 14.5419C8.62947 14.6316 8.58889 14.6811 8.57764 14.6979C8.57044 14.7086 8.61692 14.6431 8.60318 14.5296L7.4119 14.674C7.37987 14.4097 7.47439 14.1888 7.58041 14.0304C7.68239 13.878 7.82022 13.7445 7.95725 13.6279C8.23009 13.3958 8.63351 13.1215 9.11489 12.7931L9.79127 13.7843ZM9.50002 15.6417C9.08666 15.6417 8.70916 15.6432 8.42188 15.6018C8.14076 15.5613 7.73711 15.4527 7.5273 15.0479L8.59269 14.4957C8.52278 14.3608 8.40577 14.3871 8.593 14.4141C8.77407 14.4402 9.04663 14.4417 9.50002 14.4417V15.6417ZM8.60318 14.5296C8.60174 14.5178 8.59818 14.5063 8.59269 14.4957L7.5273 15.0479C7.46679 14.9311 7.42771 14.8045 7.4119 14.674L8.60318 14.5296Z" fill="#F54E4E"/>
<path d="M5.4 10.2L5.4 10.2C5.50137 10.5041 5.55206 10.6562 5.60276 10.7225C5.80288 10.9843 6.19712 10.9843 6.39724 10.7225C6.44794 10.6562 6.49863 10.5041 6.6 10.2L6.6 10.2C6.68177 9.95468 6.72266 9.83201 6.77555 9.72099C6.97291 9.30672 7.30672 8.97291 7.72099 8.77555C7.83201 8.72266 7.95468 8.68177 8.2 8.6L8.2 8.6C8.50412 8.49863 8.65618 8.44794 8.7225 8.39724C8.98431 8.19712 8.98431 7.80288 8.7225 7.60276C8.65618 7.55206 8.50412 7.50137 8.2 7.4L8.2 7.4C7.95468 7.31822 7.83201 7.27734 7.72099 7.22445C7.30672 7.02709 6.97291 6.69329 6.77555 6.27901C6.72266 6.16799 6.68177 6.04532 6.6 5.8C6.49863 5.49588 6.44794 5.34382 6.39724 5.2775C6.19712 5.01569 5.80288 5.01569 5.60276 5.2775C5.55206 5.34382 5.50137 5.49588 5.4 5.8C5.31823 6.04532 5.27734 6.16799 5.22445 6.27901C5.02709 6.69329 4.69329 7.02709 4.27901 7.22445C4.16799 7.27734 4.04532 7.31823 3.8 7.4C3.49588 7.50137 3.34382 7.55206 3.2775 7.60276C3.01569 7.80288 3.01569 8.19712 3.2775 8.39724C3.34382 8.44794 3.49588 8.49863 3.8 8.6C4.04532 8.68177 4.16799 8.72266 4.27901 8.77555C4.69329 8.97291 5.02709 9.30672 5.22445 9.72099C5.27734 9.83201 5.31822 9.95468 5.4 10.2Z" fill="white" fill-opacity="0.25" stroke="#F54E4E" stroke-width="1.2"/>
</svg>
